<svg version="1.1" id="Layer_1" xmlns="http://www.w3.org/2000/svg" xmlns:xlink="http://www.w3.org/1999/xlink" x="0px" y="0px" viewBox="0 0 500 500" style="enable-background:new 0 0 500 500;" xml:space="preserve">
<g id="dog2">
	<path id="XMLID_42_" fill="#D70A1B" d="M250,0C111.9,0,0,111.9,0,250s111.9,250,250,250s250-111.9,250-250S388.1,0,250,0z M350,437.3
		H150v-52.4h200V437.3z M221.4,265.9c0-11.1,8.7-19.8,19.8-19.8l90.5-66.7l-70.6,88.1c-0.8,10.3-9.5,19-19.8,19
		C230.2,286.5,221.4,277,221.4,265.9z M406.3,373L406.3,373h-1.6H404c0,0,0-0.8,0.8-0.8l-38.9-33.3l18.3-21.4l35.7,31.7
		c17.5-29.4,27-63.5,27-99.2c0-1.6,0-3.2,0-4.8h-44.4v-27.8h41.3c-5.6-34.1-20.6-65.9-41.3-92.1l-31,31l-19.8-19.8l31.7-31.7
		c-31-28.6-70.6-46.8-115.1-51.6v50h-28.6V52.4c-49.2,2.4-93.7,22.2-127,54l32.5,32.5l-20.6,19.8l-31-31
		c-19.8,25.4-33.3,55.6-39.7,88.9h42.9v28.6H51.6c0,1.6,0,3.2,0,4.8c0,35.7,9.5,69.8,27,99.2l34.1-34.1l19.8,19.8l-37.3,37.3
		c0,0,0,0.8,0.8,0.8H64.3C40.5,337.3,27,295.2,27,249.2C27,126.2,126.2,27,249.2,27s222.2,99.2,222.2,222.2
		c0,46-13.5,88.1-37.3,123.8H406.3z"/>
</g>
</svg>
