<?xml version="1.0" encoding="utf-8"?>
<!-- Generator: Adobe Illustrator 13.0.0, SVG Export Plug-In . SVG Version: 6.00 Build 14948)  -->
<!DOCTYPE svg PUBLIC "-//W3C//DTD SVG 1.1//EN" "http://www.w3.org/Graphics/SVG/1.1/DTD/svg11.dtd">
<svg version="1.1" id="Layer_1" xmlns="http://www.w3.org/2000/svg" xmlns:xlink="http://www.w3.org/1999/xlink" x="0px" y="0px"
	 width="40px" height="40px" viewBox="0 0 40 40" enable-background="new 0 0 40 40" xml:space="preserve">
<g>
	<path fill="#9E9E9E" d="M38.205,9.697c-0.15-0.742-0.49-1.444-0.99-2.034c-0.1-0.123-0.205-0.234-0.322-0.346
		c-0.885-0.864-2.119-1.359-3.381-1.359H6.655c-1.276,0-2.478,0.483-3.381,1.361c-0.115,0.11-0.22,0.222-0.326,0.349
		C2.452,8.254,2.112,8.956,1.965,9.699c-0.063,0.292-0.093,0.594-0.093,0.9V28.9c0,0.638,0.134,1.257,0.398,1.848
		c0.228,0.521,0.575,1.02,1.003,1.435c0.108,0.104,0.215,0.2,0.33,0.292c0.855,0.688,1.94,1.067,3.052,1.067h26.857
		c1.119,0,2.203-0.381,3.055-1.074c0.115-0.09,0.221-0.182,0.326-0.285c0.414-0.403,0.744-0.863,0.98-1.371l0.029-0.071
		c0.262-0.579,0.393-1.199,0.393-1.84V10.599C38.295,10.297,38.266,9.992,38.205,9.697z M4.349,8.921
		c0.068-0.097,0.154-0.195,0.264-0.303C5.16,8.086,5.886,7.795,6.655,7.795h26.857c0.775,0,1.502,0.292,2.043,0.823
		c0.094,0.092,0.182,0.193,0.26,0.296l0.205,0.267L21.686,21.305c-0.441,0.373-1.01,0.583-1.602,0.583
		c-0.585,0-1.155-0.21-1.602-0.583L4.162,9.185L4.349,8.921z M3.775,29.063c-0.009-0.05-0.01-0.104-0.01-0.162V10.978l11.124,9.417
		L3.878,29.71L3.775,29.063z M34.945,31.337c-0.434,0.24-0.928,0.367-1.434,0.367H6.655c-0.507,0-1.001-0.127-1.432-0.367
		l-0.451-0.255l11.377-9.622l1.247,1.055c0.749,0.629,1.702,0.976,2.687,0.976c0.987,0,1.944-0.347,2.692-0.976l1.244-1.055
		l11.375,9.623L34.945,31.337z M36.398,28.9c0,0.056,0,0.11-0.006,0.16l-0.098,0.652l-11.018-9.313l11.121-9.417V28.9z"/>
</g>
</svg>
