<svg xmlns="http://www.w3.org/2000/svg" width="20" height="20" xml:space="preserve"><path fill="#FFF" d="M18.175 19.378c-2.157 0-4.264-.526-6.368-1.578a21.763 21.763 0 0 1-5.684-4.106A20.823 20.823 0 0 1 1.964 8.01C.912 5.904.386 3.747.386 1.588c0-.316.105-.631.368-.842.263-.21.474-.316.79-.316h3.685c.263 0 .474.105.631.263s.316.368.368.684l.737 3.263c.053.263.053.474 0 .684s-.158.37-.264.528L4.07 8.483c1 1.632 2.105 3.053 3.316 4.263s2.579 2.264 4.157 3.105l2.526-2.579c.158-.21.369-.315.579-.421.211-.105.475-.105.685-.053l3.158.684c.263.054.474.158.631.422.105.21.211.474.211.737v3.526c0 .315-.105.631-.368.842a.95.95 0 0 1-.79.369zM3.281 7.062l2.158-2.158-.632-2.895H1.964c0 .685.105 1.421.316 2.264.211.842.527 1.736 1.001 2.789zM17.755 17.8v-2.79l-2.737-.526-2.105 2.21c.736.316 1.474.633 2.369.79.893.157 1.683.262 2.473.316z"/></svg>