<svg xmlns="http://www.w3.org/2000/svg" width="50" height="50" xml:space="preserve"><path d="m22.241 33.24 13.83-13.829-2.548-2.426-11.039 11.16-6.065-6.187-2.669 2.669 8.491 8.613zm2.669 16.135c-5.702-1.456-10.312-4.731-13.951-9.826S5.5 28.752 5.5 22.565V8.129L24.91.85l19.41 7.279v14.436c0 6.187-1.819 11.767-5.459 16.983s-8.25 8.493-13.951 9.827zm0-3.761c4.61-1.577 8.492-4.488 11.403-8.734 2.912-4.246 4.367-8.977 4.367-14.314V10.677L24.91 4.733 9.139 10.677v11.889c0 5.338 1.456 10.068 4.367 14.314 2.912 4.246 6.794 7.278 11.404 8.734z"/></svg>