<svg xmlns="http://www.w3.org/2000/svg" xml:space="preserve" width="48" height="48"><g fill="#FFF"><path d="M23.917 13.238c-1.75 0-3.15.612-4.287 1.75-1.137 1.137-1.75 2.625-1.75 4.287 0 1.75.612 3.15 1.75 4.287 1.137 1.137 2.625 1.75 4.287 1.75 1.663 0 3.149-.612 4.288-1.75 1.138-1.137 1.75-2.537 1.75-4.287s-.613-3.15-1.75-4.287c-1.139-1.138-2.625-1.75-4.288-1.75zm2.451 8.487c-.614.613-1.488.962-2.451.962-.962 0-1.838-.35-2.45-.962-.612-.612-.963-1.487-.963-2.45 0-1.05.351-1.838.963-2.451.612-.612 1.487-.962 2.45-.962 1.051 0 1.837.35 2.451.962.612.613.961 1.488.961 2.451 0 1.05-.35 1.838-.961 2.45z"/><path d="M23.917 6.5c-9.625 0-17.5 7.875-17.5 17.5 0 9.626 7.875 17.5 17.5 17.5 9.626 0 17.5-7.874 17.5-17.5 0-9.625-7.874-17.5-17.5-17.5zm4.728 31.675c-1.576.438-3.151.7-4.728.7-1.575 0-3.15-.266-4.725-.7-1.576-.438-3.063-1.313-4.551-2.45 1.488-1.051 2.975-1.75 4.551-2.361a12.898 12.898 0 0 1 4.725-.877c1.574 0 3.149.352 4.728.877 1.571.522 3.061 1.312 4.547 2.361-1.488 1.136-2.976 2.011-4.547 2.45zm6.56-4.375a24.326 24.326 0 0 0-5.514-2.974c-1.838-.701-3.762-1.053-5.862-1.053-2.012 0-4.025.352-5.775 1.053a25.729 25.729 0 0 0-5.425 2.974 16.776 16.776 0 0 1-2.799-4.726c-.526-1.575-.788-3.324-.788-5.074 0-4.2 1.488-7.7 4.287-10.588 2.8-2.887 6.388-4.287 10.588-4.287s7.699 1.488 10.587 4.287c2.891 2.8 4.288 6.388 4.288 10.588 0 1.75-.263 3.499-.874 4.986-.523 1.662-1.4 3.239-2.713 4.814z"/></g><circle cx="37.208" cy="33.792" r="7.875" fill="#AFAFAF"/><path fill="#FFF" stroke="#FFF" stroke-width="2" d="m33.416 30.488 7.344 7.344"/><path fill="none" stroke="#FFF" stroke-width="2" d="m33.999 37.76 7.344-7.344"/></svg>