<svg xmlns="http://www.w3.org/2000/svg" width="30" height="30" xml:space="preserve"><path fill="#ffffff" d="M15.319 18.121c-1.094 0-2.031-.392-2.813-1.172-.781-.781-1.171-1.797-1.171-2.969V4.139c0-1.094.39-2.031 1.171-2.812S14.225.233 15.319.233c1.093 0 2.03.39 2.811 1.094.782.703 1.095 1.718 1.095 2.812v9.763c0 1.173-.39 2.109-1.172 2.968-.703.78-1.641 1.174-2.734 1.251zm-1.172 11.795v-5.313c-2.734-.312-5.077-1.407-6.952-3.515-1.874-2.108-2.812-4.374-2.812-7.187h2.343c0 2.342.859 4.374 2.5 5.936 1.64 1.564 3.671 2.422 6.093 2.422 2.42 0 4.374-.781 6.092-2.422 1.719-1.639 2.499-3.594 2.499-5.936h2.343c0 2.732-.937 5.157-2.812 7.187-1.874 2.031-4.217 3.203-6.951 3.515v5.313h-2.343zm1.172-14.139c.468 0 .858-.156 1.171-.547.313-.39.469-.78.469-1.25V4.139c0-.468-.156-.781-.469-1.094-.313-.313-.703-.468-1.171-.468-.47 0-.86.155-1.172.468-.313.313-.469.625-.469 1.094v9.763c0 .469.156.938.469 1.25.312.391.703.547 1.172.625z"/></svg>