<svg xmlns="http://www.w3.org/2000/svg" width="50" height="50" xml:space="preserve"><path d="M10.79 43.109c-1.79 0-3.355-.671-4.698-1.901-1.342-1.23-1.901-2.796-1.901-4.698H.5V10.673c0-.895.335-1.677 1.007-2.349.671-.67 1.453-1.006 2.348-1.006h32.436v9.395h5.817l7.604 10.066v9.619h-3.914c0 1.789-.672 3.356-1.902 4.698-1.343 1.342-2.796 1.901-4.697 1.901-1.789 0-3.355-.671-4.698-1.901-1.23-1.342-1.901-2.797-1.901-4.698H17.39c0 1.789-.671 3.356-1.902 4.698s-2.908 2.013-4.698 2.013zm0-3.354c.895 0 1.678-.337 2.349-.896.671-.559 1.007-1.342 1.007-2.236s-.335-1.677-1.007-2.348c-.671-.671-1.342-1.008-2.349-1.008-.895 0-1.678.337-2.349 1.008-.671.671-1.007 1.342-1.007 2.348 0 .895.335 1.678 1.007 2.236.671.559 1.454.896 2.349.896zm-6.935-6.6h1.23c.671-1.008 1.454-1.79 2.46-2.35s2.013-.894 3.244-.894 2.237.334 3.244.894 1.79 1.455 2.46 2.35h16.442V10.673H3.855v22.482zm35.233 6.6c.894 0 1.678-.337 2.235-.896.56-.559.896-1.342.896-2.236s-.337-1.677-.896-2.348c-.671-.671-1.342-1.008-2.235-1.008-.896 0-1.678.337-2.237 1.008-.671.671-.895 1.342-.895 2.348 0 .895.335 1.678.895 2.236.559.559 1.454.896 2.237.896zm-2.797-11.409h10.401l-6.151-8.277h-4.25v8.277z"/></svg>