<svg version="1.1" id="Layer_1" xmlns="http://www.w3.org/2000/svg" xmlns:xlink="http://www.w3.org/1999/xlink" x="0px" y="0px" width="43px" height="43px" viewBox="0 0 43 43" enable-background="new 0 0 43 43" xml:space="preserve">
<circle fill="#202124" cx="21.5" cy="21.5" r="21.5"/>
<g>
	<path fill="#FFFFFF" d="M26.289,15.933l-0.001,0.663h-0.001v8.915c0,2.125-0.838,4.146-2.34,5.649
		c-1.503,1.503-3.524,2.34-5.649,2.34c-2.125,0-4.146-0.837-5.649-2.34c-1.502-1.503-2.34-3.524-2.34-5.649
		c0-2.126,0.837-4.146,2.34-5.649c1.503-1.503,3.524-2.34,5.649-2.34h1.482v4.2h-1.482c-1.009,0-1.966,0.396-2.68,1.109
		c-0.713,0.714-1.11,1.671-1.11,2.68s0.396,1.966,1.11,2.68c0.713,0.713,1.671,1.109,2.68,1.109s1.966-0.396,2.68-1.109
		c0.713-0.714,1.109-1.671,1.109-2.671V9.5h4.183l0.209,0.388c0.652,1.207,1.53,2.351,2.619,3.195
		c0.842,0.652,1.795,1.113,2.849,1.298l0.745,0.131l-0.799,4.049l-0.716-0.128c-0.853-0.152-1.688-0.41-2.472-0.779
		C27.806,17.229,26.972,16.656,26.289,15.933z"/>
</g>
</svg>
