<svg xmlns="http://www.w3.org/2000/svg" viewBox="0 0 36 36" style="enable-background:new 0 0 36 36" xml:space="preserve"><path d="M33.8 35.9 20.6 22.8c-1 .9-2.2 1.5-3.5 2-1.3.5-2.8.7-4.2.7-3.6 0-6.6-1.3-9.1-3.8-2.6-2.4-3.8-5.4-3.8-9s1.2-6.5 3.8-9.1S9.3-.2 12.9-.2c3.5 0 6.5 1.2 9 3.8s3.7 5.5 3.7 9.1c0 1.4-.2 2.8-.7 4.2-.5 1.3-1.2 2.6-2.1 3.8l13.2 13-2.2 2.2zm-21-13.4c2.7 0 5-1 6.9-2.9 1.9-1.9 2.9-4.2 2.9-6.9s-1-5-2.9-6.9-4.2-2.9-6.9-2.9-5.1 1-7 2.9S3 10 3 12.7s1 5 2.9 6.9 4.2 2.9 6.9 2.9z"/></svg>