<svg xmlns="http://www.w3.org/2000/svg" width="48" height="48" xml:space="preserve"><path fill="#FFF" d="M14.16 47.88c-1.2 0-2.28-.36-3.12-1.2s-1.2-1.8-1.2-3c0-1.199.36-2.16 1.2-3s1.92-1.199 3.12-1.199c1.2 0 2.16.359 3 1.199.84.84 1.32 1.801 1.32 3 0 1.2-.48 2.16-1.2 3-.72.84-1.92 1.2-3.12 1.2zm24 0c-1.2 0-2.16-.36-3-1.2s-1.2-1.8-1.2-3c0-1.199.479-2.16 1.2-3 .84-.84 1.8-1.199 3-1.199 1.199 0 2.16.359 3 1.199s1.32 1.801 1.32 3c0 1.2-.36 2.16-1.201 3-.84.84-1.92 1.2-3.119 1.2zM11.04 8.28l6.6 13.68h17.28l7.439-13.68H11.04zm-1.8-3.6h35.401c1.319 0 2.039.36 2.399 1.2.36.84.239 1.68-.36 2.64l-8.16 14.52c-.359.72-.959 1.32-1.68 1.8-.72.48-1.439.721-2.4.721h-18L13.08 31.8H42.6v3.6H13.56c-1.68 0-2.88-.601-3.6-1.68-.72-1.08-.72-2.4 0-3.721l3.84-7.08L4.68 3.6H0V0h6.96l2.28 4.68zm8.4 17.28h17.28-17.28z"/></svg>