<svg xmlns="http://www.w3.org/2000/svg" width="50" height="50" xml:space="preserve"><path d="m28.478 49.5-.613-6.746h-2.454c-5.887 0-10.794-2.087-14.965-6.134-4.171-4.171-6.256-9.2-6.256-15.089s2.085-10.795 6.256-14.966c4.17-4.171 9.2-6.134 15.088-6.134 2.943 0 5.643.491 8.097 1.595 2.452 1.104 4.661 2.454 6.501 4.416 1.841 1.963 3.313 4.048 4.293 6.624.981 2.576 1.595 5.398 1.595 8.342 0 5.521-1.595 10.795-4.661 15.824-3.19 5.153-7.483 9.202-12.881 12.268zm-2.944-13.738c.613 0 1.227-.246 1.718-.614.491-.49.612-.981.612-1.718 0-.735-.245-1.227-.612-1.718-.491-.49-.981-.735-1.718-.612-.614 0-1.227.245-1.718.612-.491.369-.736.982-.613 1.718 0 .613.245 1.228.613 1.718.491.49.982.614 1.718.614zm-1.718-8.342h3.066c0-.982.123-1.841.49-2.577.37-.736 1.104-1.595 2.209-2.699 1.104-1.104 1.841-2.085 2.332-3.067.489-.981.734-1.962.612-2.944 0-1.84-.612-3.312-1.841-4.539-1.226-1.227-2.942-1.718-5.029-1.718-1.717 0-3.189.491-4.661 1.35-1.349.859-2.331 2.085-3.067 3.68l2.821 1.227c.491-1.104 1.104-1.84 1.84-2.331.736-.491 1.717-.736 2.699-.736 1.226 0 2.208.246 2.943.859.736.613 1.104 1.349 1.104 2.331 0 .736-.245 1.595-.614 2.331-.49.735-1.226 1.84-2.452 2.944-1.104 1.104-1.841 2.085-2.086 2.698-.243.614-.366 1.841-.366 3.191zm7.607 11.653v3.802c3.312-2.821 6.011-6.133 7.851-9.936 1.962-3.803 2.82-7.606 2.82-11.531 0-5.029-1.594-9.2-4.783-12.39S30.196 4.111 25.29 4.111c-4.907 0-9.078 1.717-12.513 5.152-3.435 3.436-4.907 7.484-4.907 12.268s1.717 8.955 5.152 12.39 7.483 5.152 12.389 5.152h6.012z"/></svg>