<svg xmlns="http://www.w3.org/2000/svg" width="48" height="48" xml:space="preserve"><g fill="#ffffff"><path d="M23.917 13.238c-1.75 0-3.15.612-4.287 1.75-1.137 1.137-1.75 2.625-1.75 4.287 0 1.75.612 3.15 1.75 4.287 1.137 1.137 2.625 1.75 4.287 1.75 1.663 0 3.149-.612 4.288-1.75 1.138-1.137 1.75-2.537 1.75-4.287s-.613-3.15-1.75-4.287c-1.139-1.138-2.625-1.75-4.288-1.75zm2.451 8.487c-.614.613-1.488.962-2.451.962-.962 0-1.838-.35-2.45-.962-.612-.612-.963-1.487-.963-2.45 0-1.05.351-1.838.963-2.451.612-.612 1.487-.962 2.45-.962 1.051 0 1.837.35 2.451.962.612.613.961 1.488.961 2.451 0 1.05-.35 1.838-.961 2.45z"/><path d="M23.917 6.5c-9.625 0-17.5 7.875-17.5 17.5 0 9.626 7.875 17.5 17.5 17.5 9.626 0 17.5-7.874 17.5-17.5 0-9.625-7.874-17.5-17.5-17.5zm4.727 31.675c-1.575.438-3.151.7-4.727.7-1.575 0-3.15-.265-4.725-.7-1.576-.438-3.063-1.313-4.551-2.45 1.488-1.051 2.975-1.75 4.551-2.362a12.88 12.88 0 0 1 4.725-.876c1.574 0 3.149.351 4.727.876 1.572.523 3.061 1.312 4.548 2.362-1.488 1.136-2.976 2.012-4.548 2.45zm6.561-4.375a24.336 24.336 0 0 0-5.513-2.974c-1.838-.701-3.763-1.052-5.863-1.052-2.012 0-4.025.351-5.775 1.052a25.713 25.713 0 0 0-5.425 2.974 16.78 16.78 0 0 1-2.799-4.726c-.526-1.575-.788-3.324-.788-5.074 0-4.2 1.488-7.7 4.287-10.588 2.8-2.887 6.388-4.287 10.588-4.287s7.699 1.488 10.587 4.287c2.89 2.8 4.288 6.388 4.288 10.588 0 1.75-.263 3.499-.874 4.987-.524 1.662-1.4 3.238-2.713 4.813z"/></g></svg>