<svg xmlns="http://www.w3.org/2000/svg" xml:space="preserve" width="512" height="512"><circle cx="254.241" cy="254.249" r="252.753" fill="#FFF"/><path fill="#D70A1B" d="M254.241 1.496c-139.62 0-252.753 113.132-252.753 252.753 0 139.62 113.132 252.753 252.753 252.753 139.62 0 252.753-113.133 252.753-252.753 0-139.621-113.133-252.753-252.753-252.753zm101.102 442.115H153.14v-52.979h202.203v52.979zM225.326 270.323c0-11.222 8.796-20.017 20.019-20.017l91.497-67.435-71.378 89.07c-.808 10.414-9.604 19.209-20.018 19.209-11.223 0-20.12-9.604-20.12-20.827zm186.937 108.281h-2.325s0-.809.81-.809l-39.329-33.667 18.502-21.636 36.094 32.049c17.692-29.723 27.297-64.198 27.297-100.292v-4.853h-44.889V221.29h41.754c-5.661-34.476-20.826-66.625-41.754-93.114l-31.342 31.342-20.02-20.018 32.051-32.049c-31.342-28.915-71.378-47.315-116.367-52.168v50.551h-28.916V54.473c-49.742 2.426-94.731 22.444-128.399 54.594l32.858 32.858-20.827 20.018-31.341-31.342c-20.019 25.68-33.667 56.212-40.137 89.879h43.373v28.916h-45.7v4.853c0 36.094 9.604 70.569 27.297 100.292l34.475-34.475 20.019 20.018-37.711 37.711s0 .809.809.809H66.496c-24.063-36.092-37.71-78.655-37.71-125.163 0-124.354 100.292-224.647 224.646-224.647 124.355 0 224.647 100.293 224.647 224.647 0 46.507-13.648 89.071-37.711 125.163h-28.105z"/></svg>